PathFileType	4	(X/Y/Z) abd_0kg_2.trc																										
DataRate	CameraRate	NumFrames	NumMarkers	Units	OrigDataRate	OrigDataStartFrame	OrigNumFrames																					
100	100	39	9	mm	100	106	846																					
Frame#	Time	gu			centelbow			EpL			centpxt8			centijc7			ij			ts			aa			ai		
		X1	Y1	Z1	X2	Y2	Z2	X3	Y3	Z3	X4	Y4	Z4	X5	Y5	Z5	X6	Y6	Z6	X7	Y7	Z7	X8	Y8	Z8	X9	Y9	Z9  
105	1.05	-97.084	-8.166	165.649	-138.614	-250.642	187.213	-138.151	-243.852	218.726	-46.816	-153.158	-8.669	-46.816	31.938	-8.669	0	0	0	-133.926	27.083	40.711	-129.059	27.46	159.879	-148.912	-85.268	46.895
106	1.06	-96.921	-8.243	165.718	-138.655	-250.676	187.37	-138.3	-243.855	218.879	-46.816	-153.158	-8.669	-46.816	31.938	-8.669	0	0	0	-133.991	27.013	40.758	-129.134	27.379	159.927	-148.963	-85.341	46.93
107	1.07	-96.913	-8.516	165.883	-138.948	-250.884	187.681	-138.715	-244.023	219.182	-46.816	-153.158	-8.669	-46.816	31.938	-8.669	0	0	0	-134.126	26.948	40.765	-129.277	27.299	159.934	-149.085	-85.408	46.921
108	1.08	-97.124	-8.744	165.957	-139.444	-251.044	187.955	-139.323	-244.137	219.446	-46.816	-153.158	-8.669	-46.816	31.938	-8.669	0	0	0	-134.263	26.925	40.738	-129.418	27.254	159.907	-149.216	-85.434	46.872
109	1.09	-97.342	-8.699	165.798	-139.839	-250.945	188.046	-139.811	-243.988	219.526	-46.816	-153.158	-8.669	-46.816	31.938	-8.669	0	0	0	-134.371	26.935	40.727	-129.53	27.243	159.896	-149.324	-85.425	46.841
110	1.1	-97.409	-8.372	165.353	-139.978	-250.579	187.892	-140.032	-243.57	219.361	-46.816	-153.158	-8.669	-46.816	31.938	-8.669	0	0	0	-134.417	26.966	40.722	-129.581	27.249	159.891	-149.364	-85.396	46.812
111	1.11	-97.351	-8.024	164.788	-139.988	-250.188	187.654	-140.127	-243.121	219.11	-46.816	-153.158	-8.669	-46.816	31.938	-8.669	0	0	0	-134.391	26.986	40.694	-129.554	27.227	159.864	-149.315	-85.381	46.743
112	1.12	-97.259	-7.931	164.375	-140.074	-250.028	187.619	-140.315	-242.893	219.059	-46.816	-153.158	-8.669	-46.816	31.938	-8.669	0	0	0	-134.33	26.974	40.626	-129.487	27.148	159.796	-149.223	-85.401	46.613
113	1.13	-97.194	-8.089	164.237	-140.318	-250.089	187.922	-140.684	-242.874	219.342	-46.816	-153.158	-8.669	-46.816	31.938	-8.669	0	0	0	-134.321	26.964	40.52	-129.469	27.066	159.689	-149.184	-85.418	46.437
114	1.14	-97.138	-8.263	164.254	-140.618	-250.15	188.427	-141.123	-242.845	219.824	-46.816	-153.158	-8.669	-46.816	31.938	-8.669	0	0	0	-134.413	26.997	40.471	-129.558	27.032	159.64	-149.247	-85.392	46.324
115	1.15	-97.035	-8.261	164.138	-140.813	-250.043	188.822	-141.458	-242.645	220.195	-46.816	-153.158	-8.669	-46.816	31.938	-8.669	0	0	0	-134.51	27.03	40.56	-129.666	26.999	159.73	-149.314	-85.366	46.349
116	1.16	-96.87	-8.044	163.697	-140.844	-249.734	188.928	-141.623	-242.239	220.275	-46.816	-153.158	-8.669	-46.816	31.938	-8.669	0	0	0	-134.439	27.027	40.672	-129.613	26.922	159.842	-149.221	-85.376	46.388
117	1.17	-96.704	-7.777	163.137	-140.854	-249.37	188.978	-141.779	-241.77	220.295	-46.816	-153.158	-8.669	-46.816	31.938	-8.669	0	0	0	-134.147	27.028	40.648	-129.328	26.837	159.818	-148.925	-85.38	46.282
118	1.18	-96.681	-7.753	162.802	-141.127	-249.217	189.329	-142.228	-241.494	220.611	-46.816	-153.158	-8.669	-46.816	31.938	-8.669	0	0	0	-133.788	27.061	40.484	-128.964	26.777	159.654	-148.577	-85.349	46.031
119	1.19	-96.831	-7.988	162.639	-141.703	-249.289	189.928	-143.01	-241.426	221.167	-46.816	-153.158	-8.669	-46.816	31.938	-8.669	0	0	0	-133.587	27.102	40.272	-128.753	26.721	159.442	-148.39	-85.311	45.73
120	1.2	-96.97	-8.244	162.318	-142.285	-249.365	190.452	-143.809	-241.349	221.642	-46.816	-153.158	-8.669	-46.816	31.938	-8.669	0	0	0	-133.61	27.094	40.135	-128.77	26.622	159.304	-148.425	-85.321	45.508
121	1.21	-96.97	-8.377	161.764	-142.673	-249.316	190.815	-144.423	-241.137	221.951	-46.816	-153.158	-8.669	-46.816	31.938	-8.669	0	0	0	-133.739	26.991	40.153	-128.907	26.434	159.322	-148.576	-85.425	45.446
122	1.22	-96.897	-8.355	161.198	-142.929	-249.113	191.214	-144.924	-240.761	222.29	-46.816	-153.158	-8.669	-46.816	31.938	-8.669	0	0	0	-133.857	26.87	40.211	-129.041	26.236	159.38	-148.716	-85.547	45.429
123	1.23	-96.81	-8.206	160.82	-143.135	-248.78	191.841	-145.404	-240.246	222.848	-46.816	-153.158	-8.669	-46.816	31.938	-8.669	0	0	0	-133.912	26.88	40.093	-129.114	26.193	159.263	-148.776	-85.539	45.26
124	1.24	-96.751	-8.08	160.625	-143.369	-248.457	192.716	-145.939	-239.727	223.645	-46.816	-153.158	-8.669	-46.816	31.938	-8.669	0	0	0	-133.864	26.963	39.769	-129.102	26.272	158.939	-148.725	-85.457	44.927
125	1.25	-96.829	-8.088	160.422	-143.749	-248.245	193.703	-146.639	-239.3	224.543	-46.816	-153.158	-8.669	-46.816	31.938	-8.669	0	0	0	-133.746	26.878	39.352	-129.061	26.263	158.526	-148.619	-85.537	44.573
126	1.26	-97.067	-8.125	160.091	-144.27	-248.037	194.714	-147.498	-238.855	225.451	-46.816	-153.158	-8.669	-46.816	31.938	-8.669	0	0	0	-133.667	26.617	38.91	-129.107	26.169	158.09	-148.566	-85.788	44.274
127	1.27	-97.311	-8.052	159.747	-144.795	-247.689	195.857	-148.384	-238.249	226.475	-46.816	-153.158	-8.669	-46.816	31.938	-8.669	0	0	0	-133.598	26.487	38.467	-129.211	26.276	157.654	-148.495	-85.908	44.032
128	1.28	-97.409	-7.88	159.538	-145.217	-247.203	197.262	-149.194	-237.483	227.744	-46.816	-153.158	-8.669	-46.816	31.938	-8.669	0	0	0	-133.397	26.662	38.064	-129.219	26.723	157.259	-148.226	-85.731	43.856
129	1.29	-97.395	-7.656	159.434	-145.57	-246.625	198.898	-149.961	-236.605	229.225	-46.816	-153.158	-8.669	-46.816	31.938	-8.669	0	0	0	-133.129	26.885	37.759	-129.192	27.25	156.961	-147.845	-85.509	43.804
130	1.3	-97.446	-7.325	159.277	-146.01	-245.897	200.62	-150.83	-235.557	230.774	-46.816	-153.158	-8.669	-46.816	31.938	-8.669	0	0	0	-133.003	26.816	37.574	-129.342	27.541	156.784	-147.635	-85.573	43.922
131	1.31	-97.665	-6.836	158.948	-146.63	-244.968	202.303	-151.876	-234.293	232.269	-46.816	-153.158	-8.669	-46.816	31.938	-8.669	0	0	0	-133.016	26.528	37.398	-129.657	27.66	156.613	-147.62	-85.845	44.091
132	1.32	-97.951	-6.367	158.465	-147.355	-244.014	203.939	-153.015	-232.992	233.703	-46.816	-153.158	-8.669	-46.816	31.938	-8.669	0	0	0	-132.997	26.297	37.069	-129.932	27.85	156.288	-147.595	-86.054	44.122
133	1.33	-98.139	-6.126	157.936	-148.046	-243.235	205.616	-154.118	-231.856	235.164	-46.816	-153.158	-8.669	-46.816	31.938	-8.669	0	0	0	-132.854	26.135	36.591	-130.07	28.118	155.81	-147.466	-86.19	44.014
134	1.34	-98.236	-6	157.486	-148.651	-242.528	207.459	-155.152	-230.78	236.77	-46.816	-153.158	-8.669	-46.816	31.938	-8.669	0	0	0	-132.614	25.901	36.092	-130.119	28.344	155.308	-147.272	-86.391	43.913
135	1.35	-98.364	-5.776	157.234	-149.256	-241.686	209.588	-156.216	-229.557	238.638	-46.816	-153.158	-8.669	-46.816	31.938	-8.669	0	0	0	-132.337	25.599	35.65	-130.145	28.549	154.861	-147.05	-86.655	43.913
136	1.36	-98.559	-5.441	157.167	-149.97	-240.671	212.014	-157.406	-228.147	240.777	-46.816	-153.158	-8.669	-46.816	31.938	-8.669	0	0	0	-132.105	25.32	35.275	-130.215	28.838	154.475	-146.85	-86.892	44.035
137	1.37	-98.801	-5.011	157.123	-150.824	-239.477	214.598	-158.73	-226.543	243.051	-46.816	-153.158	-8.669	-46.816	31.938	-8.669	0	0	0	-132.006	25.091	34.944	-130.412	29.229	154.129	-146.769	-87.074	44.251
138	1.38	-99.131	-4.459	157.038	-151.816	-238.092	217.238	-160.168	-224.739	245.369	-46.816	-153.158	-8.669	-46.816	31.938	-8.669	0	0	0	-132.056	24.857	34.649	-130.774	29.637	153.814	-146.848	-87.256	44.522
139	1.39	-99.574	-3.897	156.967	-152.924	-236.643	219.955	-161.706	-222.87	247.751	-46.816	-153.158	-8.669	-46.816	31.938	-8.669	0	0	0	-132.164	24.594	34.415	-131.211	30.028	153.556	-146.996	-87.462	44.863
140	1.4	-100.032	-3.437	156.889	-154.059	-235.234	222.733	-163.257	-221.039	250.18	-46.816	-153.158	-8.669	-46.816	31.938	-8.669	0	0	0	-132.197	24.347	34.249	-131.578	30.459	153.359	-147.064	-87.647	45.292
141	1.41	-100.389	-2.952	156.779	-155.101	-233.742	225.531	-164.715	-219.123	252.61	-46.816	-153.158	-8.669	-46.816	31.938	-8.669	0	0	0	-132.111	24.102	34.12	-131.834	30.903	153.193	-147.002	-87.828	45.768
142	1.42	-100.675	-2.279	156.655	-156.064	-232.014	228.334	-166.099	-216.974	255.027	-46.816	-153.158	-8.669	-46.816	31.938	-8.669	0	0	0	-131.942	23.763	33.977	-132.027	31.264	153.008	-146.869	-88.096	46.238
143	1.43	-101.013	-1.544	156.488	-157.092	-230.16	231.147	-167.547	-214.698	257.434	-46.816	-153.158	-8.669	-46.816	31.938	-8.669	0	0	0	-131.76	23.322	33.728	-132.214	31.567	152.709	-146.75	-88.456	46.641
